<?xml version="1.0" standalone="no"?>
<!DOCTYPE svg PUBLIC "-//W3C//DTD SVG 20010904//EN"
 "http://www.w3.org/TR/2001/REC-SVG-20010904/DTD/svg10.dtd">
<svg version="1.0" xmlns="http://www.w3.org/2000/svg"
 width="1277.000000pt" height="1280.000000pt" viewBox="0 0 1277.000000 1280.000000"
 preserveAspectRatio="xMidYMid meet">
<metadata>
Created by potrace 1.15, written by Peter Selinger 2001-2017
</metadata>
<g transform="translate(0.000000,1280.000000) scale(0.100000,-0.100000)"
fill="#000000" stroke="none">
<path d="M7023 12785 c-116 -32 -210 -80 -478 -243 -273 -167 -401 -219 -515
-209 -142 12 -240 65 -423 231 -143 130 -193 163 -259 172 -92 13 -173 -42
-256 -171 -111 -176 -295 -329 -1587 -1325 -932 -718 -1440 -1130 -1925 -1560
-1203 -1067 -1596 -1724 -1241 -2076 37 -36 86 -70 144 -99 101 -51 148 -62
184 -46 26 12 279 185 555 378 81 57 149 103 151 103 3 0 8 -98 11 -217 22
-753 84 -1785 142 -2358 21 -209 33 -284 54 -325 23 -46 54 -427 54 -675 0
-168 -20 -623 -30 -672 -4 -21 -5 -21 -51 -6 -33 10 -73 13 -125 10 -117 -8
-189 -45 -298 -155 -204 -206 -377 -555 -693 -1403 -52 -140 -172 -460 -266
-711 -104 -277 -171 -471 -171 -493 0 -33 5 -38 83 -88 360 -232 858 -412
1500 -542 280 -57 732 -122 1047 -150 78 -7 1054 -58 1510 -80 1143 -53 1795
-70 2795 -69 850 0 1219 7 1720 34 1638 89 2794 286 3656 625 l146 57 -3 41
c-18 227 -29 321 -50 437 -170 939 -762 1962 -1292 2231 -110 56 -211 76 -310
62 -42 -6 -78 -10 -80 -8 -4 4 77 414 289 1450 252 1230 263 1284 328 1610
162 808 211 1087 220 1237 l6 107 360 -225 c198 -124 370 -229 383 -235 51
-20 228 78 327 182 144 153 171 334 83 559 -140 356 -618 840 -1428 1447 -152
113 -487 356 -560 404 l-25 17 57 59 c105 111 152 207 167 343 12 106 -1 208
-49 405 -52 216 -60 268 -60 422 0 222 -38 350 -131 443 -86 86 -192 122 -414
141 -448 37 -703 -56 -832 -306 -22 -44 -66 -159 -98 -255 -56 -174 -93 -270
-102 -270 -8 0 -630 414 -833 553 -531 366 -812 595 -903 737 -9 14 -25 68
-36 119 -52 238 -160 360 -325 368 -42 2 -92 -3 -123 -12z"/>
</g>
</svg>
